<svg xmlns="http://www.w3.org/2000/svg" viewBox="0 0 164.49 131.87"><defs><style>.cls-1{fill:#ffe7d7;}</style></defs><g id="OBJECTS"><path class="cls-1" d="M19.8,95.59c21.27,2,42,7.38,62.83,11.78,10.18,2.14,20.67,4,31.09,2.8,9.43-1.09,18.69-4.65,27.22-8.71a138.67,138.67,0,0,0,23.79-14.82c.46-.35.06-1.1-.47-.8-7.14,4.14-13.76,9-21.1,12.86A113.1,113.1,0,0,1,131.3,104a82.91,82.91,0,0,1-14.46,4.32c-10.45,1.91-21.16.3-31.46-1.8S64.82,102,54.5,99.86A296.5,296.5,0,0,0,19.8,94.6c-.63,0-.62.93,0,1Z"/><path class="cls-1" d="M97.91,109.68a127.1,127.1,0,0,1-19.86,9.08A106.69,106.69,0,0,1,67.71,122a29.1,29.1,0,0,1-5.63.9,44.61,44.61,0,0,1-5.3-.13c-4-.28-8-.62-11.81.7-.19.07-.11.38.09.32,3.55-1,7.28-.67,10.91-.39A36.15,36.15,0,0,0,66.86,123a87.18,87.18,0,0,0,10.51-3.19q5.05-1.8,9.91-4.05,5.56-2.56,10.88-5.6a.25.25,0,0,0-.25-.43Z"/><path class="cls-1" d="M45.23,123.52a45.35,45.35,0,0,1,17-7.06A87.83,87.83,0,0,1,80.94,115a39.84,39.84,0,0,0,5.46-.24,11.39,11.39,0,0,0,4.83-1.43.15.15,0,0,0-.12-.28c-.75.21-1.48.53-2.24.75a18.9,18.9,0,0,1-2.68.51,36.78,36.78,0,0,1-4.81.18c-3.15-.06-6.29-.17-9.44,0a56.82,56.82,0,0,0-18.08,3.63A39.82,39.82,0,0,0,45,123c-.3.21,0,.71.28.49Z"/><path class="cls-1" d="M46,123.48c4.79-2.72,10.15-3.85,15.58-4.45,5.68-.62,11.39-.93,17-2.1,1.57-.33,3.13-.71,4.69-1.11a43.86,43.86,0,0,0,4.64-1.33.1.1,0,0,0-.06-.2c-1.42.23-2.82.67-4.21,1s-2.81.71-4.22,1a73,73,0,0,1-8.82,1.44c-5.55.55-11.12.88-16.58,2.17a29.39,29.39,0,0,0-8.2,3.2.18.18,0,1,0,.18.31Z"/><path class="cls-1" d="M46,123.26a44.49,44.49,0,0,1,7.92-2.11,18.23,18.23,0,0,1,4.24-.13,27.07,27.07,0,0,0,4.12.19,45,45,0,0,0,8-1.4c2.63-.63,5.27-1.27,7.88-2,1.43-.41,2.86-.85,4.27-1.34a23.16,23.16,0,0,0,4.17-1.68c.08,0,0-.17-.07-.15-1.27.38-2.48,1-3.74,1.4s-2.61.85-3.92,1.23c-2.61.75-5.25,1.38-7.89,2a55.54,55.54,0,0,1-8.19,1.56,28.05,28.05,0,0,1-4.1,0,25,25,0,0,0-4.06-.1A36.7,36.7,0,0,0,45.9,123c-.17.06-.1.32.07.27Z"/><path class="cls-1" d="M47.55,121.6a72,72,0,0,1,13.36-3.9,135.82,135.82,0,0,1,14.07-2c2.65-.26,5.31-.48,8-.71,0,0,0-.07,0-.07-9.42.51-19,1.11-28.11,3.81a62.05,62.05,0,0,0-7.38,2.71c-.11,0,0,.25.09.2Z"/><path class="cls-1" d="M62.85,102A132.09,132.09,0,0,0,46.12,87.08a93.51,93.51,0,0,0-9.48-6.32,34.41,34.41,0,0,0-9.85-3.47c-3.73-.81-7.63-1.5-10.9-3.62-.18-.11-.33.17-.16.29a24.63,24.63,0,0,0,9.18,3.62A42.1,42.1,0,0,1,35,80.71a74.9,74.9,0,0,1,9.32,5.93c3.1,2.21,6.11,4.56,9,7a117.47,117.47,0,0,1,9.19,8.66c.22.23.57-.12.35-.35Z"/><path class="cls-1" d="M15.54,74.31a43.69,43.69,0,0,0,14,11.76,77.93,77.93,0,0,0,17.55,6.61,45,45,0,0,1,5.09,1.63,19.65,19.65,0,0,1,2.48,1.22c.81.47,1.53,1.08,2.32,1.59.16.09.29-.12.19-.25a11,11,0,0,0-3.88-2.59A32.26,32.26,0,0,0,49,92.7c-3-.91-6-1.7-8.91-2.74a61.73,61.73,0,0,1-16.53-8.62A41.65,41.65,0,0,1,16,74c-.19-.25-.64.09-.44.35Z"/><path class="cls-1" d="M16.47,74.49c3.56,3.85,8.32,6.4,13.07,8.5,5.36,2.36,10.91,4.22,16.07,7,1.46.79,2.89,1.63,4.31,2.48s2.8,1.81,4.28,2.53a.11.11,0,0,0,.11-.18,39.84,39.84,0,0,0-3.69-2.37c-1.25-.76-2.51-1.5-3.78-2.21-2.53-1.4-5.13-2.63-7.78-3.77-5.1-2.18-10.47-3.9-15.25-6.75a33.23,33.23,0,0,1-7.08-5.52c-.17-.17-.42.09-.26.26Z"/><path class="cls-1" d="M16.48,74.67a40.21,40.21,0,0,0,6.72,4.24c2.43,1.11,5.07,1.34,7.57,2.2a43,43,0,0,1,7.42,3.6c2.38,1.38,4.76,2.74,7.09,4.2q1.95,1.2,3.83,2.51c1.3.92,2.51,2,3.84,2.88.08,0,.16-.07.1-.13a21.39,21.39,0,0,0-3-2.47c-1.14-.83-2.3-1.63-3.49-2.4-2.31-1.5-4.68-2.89-7.06-4.28a55.86,55.86,0,0,0-7.12-3.7,21,21,0,0,0-3.89-1.1,22.82,22.82,0,0,1-3.9-1.1,39.48,39.48,0,0,1-7.92-4.68c-.15-.11-.29.13-.14.23Z"/><path class="cls-1" d="M17.52,76.64a62.29,62.29,0,0,0,11.63,7.88,130.28,130.28,0,0,0,13,5.73q3.75,1.45,7.53,2.8s.06,0,0-.06c-8.7-3.47-17.43-6.9-25.43-11.84a62.49,62.49,0,0,1-6.57-4.66c-.1-.09-.26.06-.15.15Z"/><path class="cls-1" d="M88.94,107.33A111.65,111.65,0,0,1,71.86,97.14,70.41,70.41,0,0,1,64,90.8a33.1,33.1,0,0,1-5.28-7.21,22.58,22.58,0,0,0-5.78-7.09c-.13-.09-.3.13-.18.23A23.77,23.77,0,0,1,58,83.47a37.13,37.13,0,0,0,4.95,7.14,57.35,57.35,0,0,0,7.55,6.27q4,2.94,8.3,5.5,4.86,2.88,10,5.32c.24.12.46-.25.21-.37Z"/><path class="cls-1" d="M53.07,76.75a39.18,39.18,0,0,1,13.64,8.8,65.21,65.21,0,0,1,5.48,6c1.73,2.17,3.25,4.47,4.83,6.74a29.79,29.79,0,0,0,2.72,3.5A9.7,9.7,0,0,0,83,104.4c.12,0,.23-.13.13-.22A29.23,29.23,0,0,1,80,101.53a27.81,27.81,0,0,1-2.57-3.35c-1.55-2.28-3-4.6-4.7-6.78A50,50,0,0,0,61.31,80.32a34.75,34.75,0,0,0-8.11-4c-.3-.1-.43.37-.13.48Z"/><path class="cls-1" d="M53.43,77.26A34.34,34.34,0,0,1,64.19,86c3.32,3.77,6.38,7.74,10,11.19,1,1,2.07,1.9,3.14,2.82a37.83,37.83,0,0,0,3.2,2.6c.09.06.18-.07.11-.14-.87-.89-1.87-1.66-2.81-2.47s-1.95-1.69-2.9-2.56A60.93,60.93,0,0,1,69.68,92c-3.17-3.7-6.18-7.53-9.83-10.78A25.59,25.59,0,0,0,53.59,77c-.18-.08-.34.19-.16.27Z"/><path class="cls-1" d="M53.6,77.13a40.24,40.24,0,0,1,5.33,4.51,15.45,15.45,0,0,1,2.19,2.9,27.68,27.68,0,0,0,1.82,2.94,34,34,0,0,0,4.66,4.79c1.82,1.62,3.64,3.24,5.52,4.79,1,.84,2,1.65,3.1,2.43a22.17,22.17,0,0,0,3.44,2.26c.07,0,.16-.06.09-.11-.9-.72-1.91-1.29-2.84-2s-2.06-1.55-3-2.37c-1.9-1.55-3.72-3.19-5.55-4.82a44,44,0,0,1-4.93-4.92c-1.49-1.83-2.42-4-4-5.82a32.86,32.86,0,0,0-5.7-4.81c-.12-.09-.24.11-.12.2Z"/><path class="cls-1" d="M55.55,77.43C62.4,81.81,68.13,87.86,73.36,94c1.49,1.75,3,3.52,4.43,5.28,0,0,.06,0,0,0-5-6.45-10.21-13-16.64-18.11a53.39,53.39,0,0,0-5.54-3.88.09.09,0,0,0-.1.16Z"/><path class="cls-1" d="M17.22,95.1a32.27,32.27,0,0,1-7.1,2.33,11.06,11.06,0,0,1-3.85,0,3.51,3.51,0,0,1-2.85-1.79c-.89-2.25,1.14-4.13,3.11-4.73a8.82,8.82,0,0,1,6.53.66,20.14,20.14,0,0,1,2.86,2.09,3,3,0,0,0,2.88.77c.27-.08.23-.53-.07-.51-1.29.11-2.38-1-3.29-1.73a9.75,9.75,0,0,0-3-1.78,9.28,9.28,0,0,0-7,.09c-1.92.85-3.44,2.81-2.9,5,.63,2.5,3.77,2.85,5.91,2.73,3.14-.18,6-1.51,8.81-2.86a.16.16,0,0,0-.12-.29Z"/><path class="cls-1" d="M9,96.16a17.84,17.84,0,0,0,4.44-.07,12.47,12.47,0,0,0,4.24-1.18.13.13,0,0,0-.09-.23c-.73.16-1.43.42-2.15.59a17.51,17.51,0,0,1-2.14.4,21.31,21.31,0,0,1-4.3.1c-.26,0-.25.36,0,.39Z"/><path class="cls-1" d="M9.69,94.42c2.25,0,4.49.08,6.74,0a.08.08,0,0,0,0-.16c-2.25-.12-4.49-.17-6.74-.23a.17.17,0,0,0,0,.34Z"/><path class="cls-1" d="M16.94,94.25a30.13,30.13,0,0,0-4.21-1.5c-1.05-.28-2.33-.52-3.25.23-.15.12,0,.38.21.27,1-.71,2.28-.22,3.32.06a27.5,27.5,0,0,1,3.77,1.3c.21.09.36-.27.16-.36Z"/><path class="cls-1" d="M19.32,94.35a5.39,5.39,0,0,0-4.14,3.75,5.64,5.64,0,0,0,2,5.45.45.45,0,0,0,.7-.54c-.65-1.42-1.79-2.81-1.41-4.48.33-1.43,1.87-2.44,3.19-2.85a.69.69,0,0,0-.36-1.33Z"/><path class="cls-1" d="M18.65,94.65A18.22,18.22,0,0,0,15,96.38a8.82,8.82,0,0,0-1.53,1.27,6,6,0,0,0-1.28,1.56.4.4,0,0,0,.54.54,13.73,13.73,0,0,0,1.52-1c.52-.33,1.07-.62,1.58-1a16.75,16.75,0,0,1,3.19-1.68.78.78,0,0,0,.53-.94.76.76,0,0,0-.93-.52Z"/><path class="cls-1" d="M11.73,93.29A8.21,8.21,0,0,0,14.63,95a5.33,5.33,0,0,0,3.3.19c.32-.1.4-.67,0-.73A19.12,19.12,0,0,1,15,93.93a7.08,7.08,0,0,1-2.5-1.43c-.53-.49-1.32.3-.79.79Z"/><path class="cls-1" d="M14,90.13a6.73,6.73,0,0,0,2.21,3.33A9,9,0,0,0,18,94.68c.35.17.7.33,1.06.48a9.57,9.57,0,0,0,1.05.42.26.26,0,0,0,.2-.48c-.56-.4-1.22-.69-1.81-1.06s-1.18-.73-1.72-1.15a5.93,5.93,0,0,1-2.15-3,.36.36,0,0,0-.7.19Z"/><path class="cls-1" d="M15.89,89.47a4.32,4.32,0,0,0,.35,1.62,6.35,6.35,0,0,0,1,1.52c.37.47.78.92,1.15,1.4l.59.72a3.56,3.56,0,0,0,.75.7c.3.2.62-.19.47-.48a7,7,0,0,0-1.07-1.37c-.38-.44-.73-.89-1.07-1.37a13.63,13.63,0,0,1-.8-1.32,3.64,3.64,0,0,1-.49-1.42c-.06-.52-.84-.55-.83,0Z"/><path class="cls-1" d="M27.52,110.34a20.69,20.69,0,0,0-6.33-2.23c-1.63-.21-4.23-.19-5.17,1.48a3.3,3.3,0,0,0,1.28,4.19,6.9,6.9,0,0,0,5.42.79,7.62,7.62,0,0,0,2.9-1.38c.87-.68,1.8-1.79,3-1.7.24,0,.27-.34.05-.4-1.6-.48-2.66,1.06-3.86,1.85a7.22,7.22,0,0,1-5.15,1.13c-1.68-.29-3.59-1.41-3.4-3.37.22-2.11,3.05-2.25,4.67-2.11a22.48,22.48,0,0,1,6.49,2c.13.05.22-.17.09-.23Z"/><path class="cls-1" d="M20.83,110a16.38,16.38,0,0,1,3.43.08,13.93,13.93,0,0,1,1.71.32c.58.14,1.14.35,1.72.47a.1.1,0,0,0,.07-.18,9.91,9.91,0,0,0-3.39-1,14.46,14.46,0,0,0-3.54-.06c-.2,0-.2.33,0,.32Z"/><path class="cls-1" d="M21.41,111.37c1.8,0,3.59-.08,5.38-.17.08,0,.08-.13,0-.13-1.79,0-3.58,0-5.38,0-.17,0-.17.28,0,.27Z"/><path class="cls-1" d="M27.08,111a23.37,23.37,0,0,1-3,1c-.82.22-1.88.62-2.65.05-.12-.09-.29.12-.17.21a2.9,2.9,0,0,0,2.6.19,23.53,23.53,0,0,0,3.36-1.19c.16-.07,0-.36-.12-.29Z"/><path class="cls-1" d="M29.39,110.1a3.61,3.61,0,0,1-2.54-2.27c-.31-1.33.6-2.44,1.13-3.57a.36.36,0,0,0-.56-.43,4.49,4.49,0,0,0-1.62,4.34,4.32,4.32,0,0,0,3.3,3,.55.55,0,0,0,.29-1.07Z"/><path class="cls-1" d="M28.89,109.77a13.52,13.52,0,0,1-2.55-1.35c-.4-.26-.82-.49-1.22-.75a12.8,12.8,0,0,0-1.25-.82.32.32,0,0,0-.43.44,4.78,4.78,0,0,0,1,1.21,7.82,7.82,0,0,0,1.25,1,15.33,15.33,0,0,0,2.89,1.38.61.61,0,0,0,.74-.42.62.62,0,0,0-.42-.74Z"/><path class="cls-1" d="M23.67,112.64a5.69,5.69,0,0,1,2-1.14,15.28,15.28,0,0,1,2.32-.43c.32,0,.26-.5,0-.58a4.27,4.27,0,0,0-2.64.15A6.53,6.53,0,0,0,23,112c-.43.39.21,1,.63.63Z"/><path class="cls-1" d="M25.37,114.68a4.79,4.79,0,0,1,1.72-2.35c.42-.32.88-.6,1.34-.89s1-.54,1.48-.86c.19-.14.08-.46-.16-.39a7.71,7.71,0,0,0-.84.33l-.85.38a6.91,6.91,0,0,0-1.48,1,5.34,5.34,0,0,0-1.77,2.65.29.29,0,0,0,.56.15Z"/><path class="cls-1" d="M27,115.07a2.86,2.86,0,0,1,.37-1.11c.21-.37.42-.74.66-1.09s.54-.71.83-1.05a6.42,6.42,0,0,0,.89-1.13c.12-.23-.14-.54-.38-.38a2.82,2.82,0,0,0-.57.52c-.16.19-.32.38-.47.58-.31.39-.65.76-1,1.15a5.17,5.17,0,0,0-.75,1.17,3.62,3.62,0,0,0-.29,1.34c0,.43.61.41.66,0Z"/><path class="cls-1" d="M120.94,107.81a31.2,31.2,0,0,1-17.16-4.93,29.41,29.41,0,0,1-6.74-6c-1.78-2.17-3.2-4.61-4.86-6.87s-3.84-4.77-6.67-5.71c-.22-.08-.37.27-.16.38a18,18,0,0,1,6.33,5.62c1.65,2.25,3.07,4.66,4.84,6.83a30.69,30.69,0,0,0,14.59,9.78,28,28,0,0,0,9.83,1.32c.27,0,.28-.43,0-.42Z"/><path class="cls-1" d="M85.69,85a32.48,32.48,0,0,1,8.06.57,13.86,13.86,0,0,1,6.34,3.53c3.48,3.36,5.43,7.87,7.9,12a21,21,0,0,0,5.14,6.21c.27.2.58-.22.36-.45a31.13,31.13,0,0,1-4.78-6.06c-1.3-2.14-2.42-4.38-3.72-6.52-2.42-4-5.6-7.9-10.3-9.19a29.88,29.88,0,0,0-9-.57c-.34,0-.35.54,0,.53Z"/><path class="cls-1" d="M112.14,106.46c-2.13-.34-3.7-2-5.23-3.37l-5.12-4.65c-1.71-1.56-3.42-3.1-5.13-4.65l-2.57-2.32a18.6,18.6,0,0,0-2.65-2.3c-.12-.07-.3.08-.21.21a19.36,19.36,0,0,0,2.55,2.4l2.75,2.49,5.32,4.8,5.33,4.8c1.42,1.27,2.91,2.61,4.88,2.88.19,0,.28-.26.08-.29Z"/><path class="cls-1" d="M111.51,105.48c-3.45-2.11-6-5.25-8.66-8.24a56.12,56.12,0,0,0-9-8.29A26.4,26.4,0,0,0,88,85.33c-.17-.07-.23.17-.11.26,1.63,1.25,3.51,2.19,5.19,3.4A53.85,53.85,0,0,1,98,93c3,2.69,5.45,5.81,8.26,8.65a25.84,25.84,0,0,0,5.08,4.11.15.15,0,0,0,.15-.26Z"/><path class="cls-1" d="M110.05,104.23c-5.79-6.34-10-15.23-18.67-18.11-.28-.1-.4.35-.12.45,8.56,2.88,12.72,11.72,18.63,17.83.1.1.26-.06.16-.17Z"/><path class="cls-1" d="M39.78,104.2a.08.08,0,0,0,0-.15.08.08,0,0,0,0,.15Z"/><path class="cls-1" d="M29.19,110.7a63.27,63.27,0,0,0,14.48-3,40.61,40.61,0,0,0,6.39-2.86,17.12,17.12,0,0,0,5.49-4.31c.12-.17-.11-.35-.26-.26-2,1.08-3.78,2.55-5.76,3.68a41.78,41.78,0,0,1-6.49,3A65.73,65.73,0,0,1,29.19,110c-.41,0-.43.71,0,.67Z"/><path class="cls-1" d="M67.62,6.84a11.06,11.06,0,0,0,1,4L87.72,53.93l19.2-47.09,17.1,0V8.52q-7.5,0-7.51,7.51V57.41Q116.51,65,124,65v1.6H98.63V65q7.59,0,7.59-7.55v-44L84.4,66.48h-3l-24-53.12V57.41q0,7.71,7.42,7.8v1.35H48.09V65.13q7.52,0,7.51-7.72V16q0-7.52-7.51-7.51V6.88Z"/></g></svg>